<svg width="28" height="14" xmlns="http://www.w3.org/2000/svg" fill="none">
 <defs>
  <clipPath id="clip0_139_1024">
   <rect id="svg_1" fill="white" height="28" width="28"/>
  </clipPath>
 </defs>
 <g>
  <title>Layer 1</title>
  <path id="svg_3" fill="#1dbeb4" d="m20.5488,6.8379c1.4556,0.1704 2.7735,-0.8716 2.9438,-2.3273c0.1702,-1.45535 -0.8716,-2.77336 -2.3273,-2.94362c-1.4555,-0.17037 -2.7735,0.87158 -2.9434,2.32722c-0.1707,1.4556 0.8715,2.7734 2.3269,2.9437z"/>
  <path id="svg_4" fill="#1dbeb4" d="m8.99224,4.68l3.94696,-0.7882l0.8488,1.365l-3.0751,2.9241c0.4748,0.12 0.9309,0.2986 1.3548,0.5322c0.2033,0.1121 0.3938,0.2415 0.578,0.3666c0.2968,0.2015 0.576,0.3955 0.8528,0.4715c0.2189,0.0601 0.5057,0.0635 0.5239,0.0646c0.3898,-0.0034 0.7333,-0.1118 1.0839,-0.3404c0.9118,-0.5945 2.0309,-1.2104 3.4189,-1.2714c0.1024,-0.0044 0.2059,-0.0068 0.3077,-0.0068c0.4453,0 0.8806,0.0438 1.297,0.1286c-0.2856,-0.456 -5.3745,-6.62272 -5.3745,-6.62272l-0.1341,-0.16044c-0.3284,-0.39031 -0.878,-0.55359 -1.3847,-0.3679l-4.79233,1.75776c-0.46204,0.16895 -0.7449,0.6539 -0.64566,1.1512c0.10976,0.5494 0.64418,0.9059 1.19363,0.7963z"/>
  <path id="svg_5" fill="#1dbeb4" d="m26.438,10.811c-0.6533,0.293 -1.1402,0.4124 -1.6811,0.4124c-0.213,0 -0.4333,-0.019 -0.6737,-0.0584c-0.8007,-0.1428 -1.3714,-0.6051 -1.9234,-1.0523c-0.3394,-0.2749 -0.6601,-0.5347 -1.031,-0.726c-0.6713,-0.348 -1.4787,-0.5319 -2.3354,-0.5319c-0.0889,0 -0.1793,0.0021 -0.2687,0.0061c-1.1715,0.0514 -2.1213,0.5725 -2.9735,1.1281c-0.4999,0.3261 -1.0929,0.4825 -1.631,0.4825c-0.1623,0 -0.4927,-0.0356 -0.707,-0.0974c-0.4115,-0.1187 -0.7642,-0.3583 -1.1054,-0.5899c-0.1752,-0.1191 -0.3407,-0.2315 -0.508,-0.3237c-0.7161,-0.3948 -1.543,-0.6035 -2.39127,-0.6035l-0.01721,0c-1.1876,0.0039 -2.26166,0.3681 -3.10592,1.0531c-1.1756,0.9541 -1.95143,1.2221 -2.1726,1.2599c0,0 -0.18552,0.0485 -0.58387,0.0485c-0.76312,0 -1.40086,-0.25 -2.04097,-0.5283c-0.44968,-0.1956 -0.87346,-0.3078 -1.28796,-0.3405c0.08037,0.0464 0.15731,0.0949 0.23194,0.1461c0.3249,0.2265 0.59232,0.5018 0.85081,0.7681c0.13839,0.1424 0.26902,0.277 0.40782,0.4047c0.54342,0.4999 1.66497,1.0908 2.95583,1.0908c0.65501,0 1.28879,-0.1424 1.88354,-0.4234c0.17499,-0.0827 0.34536,-0.1812 0.52568,-0.2853c0.29917,-0.1727 0.60994,-0.3467 0.9543,-0.4627c0.43455,-0.1464 1.10907,-0.0979 1.10907,-0.0979c0.69937,0.0447 1.22311,0.3751 1.60121,0.658c1.152,0.8618 2.2389,1.2684 3.4205,1.2799l0.0602,0.0004c0.8131,0 1.5569,-0.1567 2.211,-0.4657c0.3047,-0.1441 0.5948,-0.3559 0.902,-0.5804c0.577,-0.4214 1.1737,-0.8573 1.9421,-0.8875c0.0457,-0.0018 0.0922,-0.0028 0.1394,-0.0028c0.4207,0 1.0543,0.0731 1.6831,0.4214c0.7569,0.4206 1.6726,0.8504 2.7291,0.8504c0.1535,0 0.3102,-0.0089 0.4657,-0.0265c0.9725,-0.1101 1.7945,-0.4686 2.4432,-1.0657c0.1391,-0.128 0.27,-0.263 0.4086,-0.4058c0.2957,-0.3046 0.6013,-0.6196 0.9874,-0.8588c0.029,-0.018 0.0581,-0.0355 0.0875,-0.0524c-0.4667,0.0415 -0.961,0.187 -1.562,0.4564z"/>
 </g>
</svg>